name rise34.3697peak60.0498fall86.3158.mot
datacolumns 19
datarows 27
range 12.49662200000000 12.53995500000000
endheader
time	ground_force1_vx	ground_force1_vy	ground_force1_vz	ground_force1_px	ground_force1_py	ground_force1_pz	ground_force2_vx	ground_force2_vy	ground_force2_vz	ground_force2_px	ground_force2_py	ground_force2_pz	ground_torque1_x	ground_torque1_y	ground_torque1_z	ground_torque2_x	ground_torque2_y	ground_torque2_z	
12.49662200000000	47.56565900000000	748.86301600000002	54.57983000000000	0.44942300000000	0.00000000000000	0.12186200000000	0.49992600000000	3.34624300000000	0.45350100000000	0.00000000000000	0.00000000000000	0.00000000000000	0.00000000000000	34.71094400000000	0.00000000000000	0.00000000000000	0.21813600000000	0.00000000000000	
12.49828300000000	46.72354800000000	750.93790300000001	54.69270600000000	0.44723300000000	0.00000000000000	0.12198100000000	0.00000000000000	0.00000000000000	0.00000000000000	0.00000000000000	0.00000000000000	0.00000000000000	0.00000000000000	34.78470400000000	0.00000000000000	0.00000000000000	0.00000000000000	0.00000000000000	
12.49995000000000	45.88984400000000	752.92256199999997	54.80714200000000	0.44504500000000	0.00000000000000	0.12210200000000	0.00000000000000	0.00000000000000	0.00000000000000	0.00000000000000	0.00000000000000	0.00000000000000	0.00000000000000	34.85900200000000	0.00000000000000	0.00000000000000	0.00000000000000	0.00000000000000	
12.50162100000000	45.06537800000000	754.81596100000002	54.92283900000000	0.44286200000000	0.00000000000000	0.12222500000000	0.00000000000000	0.00000000000000	0.00000000000000	0.00000000000000	0.00000000000000	0.00000000000000	0.00000000000000	34.93360500000000	0.00000000000000	0.00000000000000	0.00000000000000	0.00000000000000	
12.50328500000000	44.25089700000000	756.61712199999999	55.03944500000000	0.44068600000000	0.00000000000000	0.12235000000000	0.00000000000000	0.00000000000000	0.00000000000000	0.00000000000000	0.00000000000000	0.00000000000000	0.00000000000000	35.00824000000000	0.00000000000000	0.00000000000000	0.00000000000000	0.00000000000000	
12.50495100000000	43.44707200000000	758.32512599999995	55.15655300000000	0.43852100000000	0.00000000000000	0.12247500000000	0.00000000000000	0.00000000000000	0.00000000000000	0.00000000000000	0.00000000000000	0.00000000000000	0.00000000000000	35.08260300000000	0.00000000000000	0.00000000000000	0.00000000000000	0.00000000000000	
12.50663400000000	42.65449600000000	759.93912399999999	55.27371300000000	0.43636900000000	0.00000000000000	0.12260200000000	0.00000000000000	0.00000000000000	0.00000000000000	0.00000000000000	0.00000000000000	0.00000000000000	0.00000000000000	35.15636000000000	0.00000000000000	0.00000000000000	0.00000000000000	0.00000000000000	
12.50828100000000	41.87368700000000	761.45835399999999	55.39043200000000	0.43423400000000	0.00000000000000	0.12272900000000	0.00000000000000	0.00000000000000	0.00000000000000	0.00000000000000	0.00000000000000	0.00000000000000	0.00000000000000	35.22915200000000	0.00000000000000	0.00000000000000	0.00000000000000	0.00000000000000	
12.50995000000000	41.10508800000000	762.88214300000004	55.50618300000000	0.43211600000000	0.00000000000000	0.12285700000000	0.00000000000000	0.00000000000000	0.00000000000000	0.00000000000000	0.00000000000000	0.00000000000000	0.00000000000000	35.30060200000000	0.00000000000000	0.00000000000000	0.00000000000000	0.00000000000000	
12.51162100000000	40.34907500000000	764.20992100000001	55.62041300000000	0.43002000000000	0.00000000000000	0.12298500000000	0.00000000000000	0.00000000000000	0.00000000000000	0.00000000000000	0.00000000000000	0.00000000000000	0.00000000000000	35.37031800000000	0.00000000000000	0.00000000000000	0.00000000000000	0.00000000000000	
12.51329100000000	39.60595100000000	765.44122700000003	55.73254200000000	0.42794800000000	0.00000000000000	0.12311300000000	0.00000000000000	0.00000000000000	0.00000000000000	0.00000000000000	0.00000000000000	0.00000000000000	0.00000000000000	35.43789800000000	0.00000000000000	0.00000000000000	0.00000000000000	0.00000000000000	
12.51495600000000	38.87595900000000	766.57572300000004	55.84197600000000	0.42590100000000	0.00000000000000	0.12324000000000	0.00000000000000	0.00000000000000	0.00000000000000	0.00000000000000	0.00000000000000	0.00000000000000	0.00000000000000	35.50293500000000	0.00000000000000	0.00000000000000	0.00000000000000	0.00000000000000	
12.51661900000000	38.15927800000000	767.61319400000002	55.94811100000000	0.42388200000000	0.00000000000000	0.12336800000000	0.00000000000000	0.00000000000000	0.00000000000000	0.00000000000000	0.00000000000000	0.00000000000000	0.00000000000000	35.56502000000000	0.00000000000000	0.00000000000000	0.00000000000000	0.00000000000000	
12.51829000000000	37.45602600000000	768.55356200000006	56.05033500000000	0.42189300000000	0.00000000000000	0.12349400000000	0.00000000000000	0.00000000000000	0.00000000000000	0.00000000000000	0.00000000000000	0.00000000000000	0.00000000000000	35.62374800000000	0.00000000000000	0.00000000000000	0.00000000000000	0.00000000000000	
12.51995200000000	36.76626900000000	769.39688699999999	56.14803900000000	0.41993500000000	0.00000000000000	0.12362000000000	0.00000000000000	0.00000000000000	0.00000000000000	0.00000000000000	0.00000000000000	0.00000000000000	0.00000000000000	35.67871900000000	0.00000000000000	0.00000000000000	0.00000000000000	0.00000000000000	
12.52161600000000	36.09002000000000	770.14337899999998	56.24062000000000	0.41801100000000	0.00000000000000	0.12374400000000	0.00000000000000	0.00000000000000	0.00000000000000	0.00000000000000	0.00000000000000	0.00000000000000	0.00000000000000	35.72954600000000	0.00000000000000	0.00000000000000	0.00000000000000	0.00000000000000	
12.52328300000000	35.42724400000000	770.79339700000003	56.32748400000000	0.41612300000000	0.00000000000000	0.12386700000000	0.00000000000000	0.00000000000000	0.00000000000000	0.00000000000000	0.00000000000000	0.00000000000000	0.00000000000000	35.77585600000000	0.00000000000000	0.00000000000000	0.00000000000000	0.00000000000000	
12.52495300000000	34.77785900000000	771.34745599999997	56.40805600000000	0.41427100000000	0.00000000000000	0.12398800000000	0.00000000000000	0.00000000000000	0.00000000000000	0.00000000000000	0.00000000000000	0.00000000000000	0.00000000000000	35.81728900000000	0.00000000000000	0.00000000000000	0.00000000000000	0.00000000000000	
12.52662000000000	34.14174600000000	771.80623000000003	56.48178100000000	0.41245800000000	0.00000000000000	0.12410700000000	0.00000000000000	0.00000000000000	0.00000000000000	0.00000000000000	0.00000000000000	0.00000000000000	0.00000000000000	35.85351100000000	0.00000000000000	0.00000000000000	0.00000000000000	0.00000000000000	
12.52828400000000	33.51874700000000	772.17055600000003	56.54812700000000	0.41068400000000	0.00000000000000	0.12422500000000	0.00000000000000	0.00000000000000	0.00000000000000	0.00000000000000	0.00000000000000	0.00000000000000	0.00000000000000	35.88420500000000	0.00000000000000	0.00000000000000	0.00000000000000	0.00000000000000	
12.52994900000000	32.90867100000000	772.44143399999996	56.60659400000000	0.40895100000000	0.00000000000000	0.12434000000000	0.00000000000000	0.00000000000000	0.00000000000000	0.00000000000000	0.00000000000000	0.00000000000000	0.00000000000000	35.90908200000000	0.00000000000000	0.00000000000000	0.00000000000000	0.00000000000000	
12.53161800000000	32.31129800000000	772.62002900000005	56.65671600000000	0.40725900000000	0.00000000000000	0.12445300000000	0.00000000000000	0.00000000000000	0.00000000000000	0.00000000000000	0.00000000000000	0.00000000000000	0.00000000000000	35.92787800000000	0.00000000000000	0.00000000000000	0.00000000000000	0.00000000000000	
12.53328400000000	31.72638000000000	772.70767100000000	56.69805900000000	0.40561100000000	0.00000000000000	0.12456300000000	0.00000000000000	0.00000000000000	0.00000000000000	0.00000000000000	0.00000000000000	0.00000000000000	0.00000000000000	35.94035900000000	0.00000000000000	0.00000000000000	0.00000000000000	0.00000000000000	
12.53495400000000	31.15365000000000	772.70585600000004	56.73023200000000	0.40400500000000	0.00000000000000	0.12467100000000	0.00000000000000	0.00000000000000	0.00000000000000	0.00000000000000	0.00000000000000	0.00000000000000	0.00000000000000	35.94631700000000	0.00000000000000	0.00000000000000	0.00000000000000	0.00000000000000	
12.53661900000000	30.59282200000000	772.61624200000006	56.75288500000000	0.40244500000000	0.00000000000000	0.12477600000000	0.00000000000000	0.00000000000000	0.00000000000000	0.00000000000000	0.00000000000000	0.00000000000000	0.00000000000000	35.94557800000000	0.00000000000000	0.00000000000000	0.00000000000000	0.00000000000000	
12.53829000000000	30.04359200000000	772.44065000000001	56.76571100000000	0.40092800000000	0.00000000000000	0.12487700000000	0.00000000000000	0.00000000000000	0.00000000000000	0.00000000000000	0.00000000000000	0.00000000000000	0.00000000000000	35.93799800000000	0.00000000000000	0.00000000000000	0.00000000000000	0.00000000000000	
12.53995500000000	29.50564700000000	772.18105600000001	56.76845200000000	0.39945700000000	0.00000000000000	0.12497600000000	0.00000000000000	0.00000000000000	0.00000000000000	0.00000000000000	0.00000000000000	0.00000000000000	0.00000000000000	35.92346200000000	0.00000000000000	0.00000000000000	0.00000000000000	0.00000000000000	
